<svg xmlns="http://www.w3.org/2000/svg" width="250.691" height="185.646" viewBox="0 0 250.691 185.646"><defs><style>.a{fill:none;stroke:#a7316c;}.b{fill:#2f2e41;}.c{fill:#a0616a;}.d{fill:#d0cde1;}.e{fill:#3f3d56;}.f{fill:#a7316c;}</style></defs><g transform="translate(0.5 0.5)"><path class="a" d="M52,70v89.65h89.65V70Zm45.556,87.7a2.436,2.436,0,1,1,2.436-2.436A2.436,2.436,0,0,1,97.556,157.7Z" transform="translate(-52 -70)"/><path class="b" d="M902.057,148.434l6.982-2.177.6-6.149s-16.982-6.415-22.411,4.932a18.006,18.006,0,0,1-6.656,7.849,12.274,12.274,0,0,1-10.68.92c-11.769-4.3-14.541,7.925-14.541,7.925s1.017,1.74,8.272,2.168c3.61.213,6.565,2.93,8.622,5.606a9,9,0,0,0,15.674-2.8q.054-.166.106-.337c3.47-11.369,19.27-2.317,19.27-2.317l1.009-10.3Z" transform="translate(-659.646 -121.662)"/><circle class="b" cx="8.552" cy="8.552" r="8.552" transform="translate(186.286 37.497)"/><circle class="b" cx="22.804" cy="22.804" r="22.804" transform="translate(167.758 46.048)"/><circle class="c" cx="15.678" cy="15.678" r="15.678" transform="translate(174.172 61.489)"/><path class="c" d="M805.955,429.611l2.85,15.2,14.253-1.9s-2.375-11.877-.95-15.2Z" transform="translate(-622.282 -340.568)"/><path class="c" d="M462.5,661.143s-16.153-9.5-17.578-2.85,16.153,9.5,16.153,9.5Z" transform="translate(-349.138 -513.19)"/><path class="c" d="M868.342,280.39s-11.4-8.551-16.153-5.226,12.827,14.253,14.728,13.3S868.342,280.39,868.342,280.39Z" transform="translate(-656.639 -224.603)"/><path class="d" d="M738.576,456.963l-17.1,2.851v7.6s-16.153,5.226-16.153,7.6-4.276,11.4-4.276,11.4-10.452,7.6-1.9,16.628c0,0,3.326,5.226.95,5.7s-7.6,1.9-5.226,3.8,38.007,14.728,40.857,13.777,24.7-34.681,24.7-43.233-9.027-20.9-9.027-20.9l-10.452-1.425Z" transform="translate(-537.8 -362.694)"/><path class="d" d="M561.116,529.012s-6.651-.95-9.027,7.126-10.452,34.206-10.452,34.206-28.98-.475-36.581-7.6l-3.326,10.927s43.708,15.678,47.508,12.827,20.429-48.934,20.429-48.934Z" transform="translate(-392.171 -417.164)"/><path class="d" d="M910.426,339.668l1.425-1.425s18.053-19.478,17.578-24.229c0,0-9.5-11.877-21.379-8.552,0,0-5.226-12.827,2.85-12.352s38.007-1.425,37.532,12.352-28.98,56.06-28.98,56.06Z" transform="translate(-698.248 -238.748)"/><path class="b" d="M707.409,719.355a80.99,80.99,0,0,1-13.131,1.067,80.02,80.02,0,0,1-39.848-10.556l2.823-5.718,8.987-18.213.4-.806,6.546,1.973,32.885,9.905.09,1.518Z" transform="translate(-507.67 -535.276)"/><ellipse class="b" cx="9.977" cy="15.678" rx="9.977" ry="15.678" transform="translate(172.507 69.446) rotate(-71.208)"/><path class="e" d="M236.381,394c3.3-6.049,11.209-9.879,17.678-6.427a11.7,11.7,0,0,1,5.961,7.552c.854,3.774-.944,7.373-2.8,10.544-1.007,1.721-2.11,3.407-2.943,5.223a8.587,8.587,0,0,0-.83,6.1,7.938,7.938,0,0,0,3.656,4.167,27.24,27.24,0,0,0,5.618,2.508,33.069,33.069,0,0,0,12.542,1.623,34.3,34.3,0,0,0,6.251-1.01c2.179-.555,4.317-1.26,6.5-1.8,3.644-.905,7.8-1.355,11.253.464,3.356,1.767,4.859,5.462,5.323,9.056a22,22,0,0,1-6.525,18.174,18.3,18.3,0,0,1-8.273,4.826c-2.726.658-6.227.616-8.4-1.422-2.421-2.275-1.853-5.922.071-8.322,2.455-3.062,6.612-3.8,10.323-3.872,4.221-.085,8.438.544,12.656.153a19.441,19.441,0,0,0,5.985-1.444,15.169,15.169,0,0,0,4.511-3.052,19.826,19.826,0,0,0,5.234-9.406,29.938,29.938,0,0,0,.006-12.877,58.044,58.044,0,0,0-1.678-6.458c-.282-.894-1.694-.512-1.409.389,2.514,7.972,3.916,17.19-.942,24.592a14.643,14.643,0,0,1-8.756,6.3c-4.2,1.045-8.615.528-12.889.373-4.064-.148-8.526.012-12.01,2.379-2.858,1.941-4.857,5.634-3.993,9.12.833,3.362,4.064,5.066,7.295,5.33a15.864,15.864,0,0,0,9.574-2.641,23.666,23.666,0,0,0,10.685-17.112,19.223,19.223,0,0,0-1.638-10.733,10.508,10.508,0,0,0-3.86-4.3,12.7,12.7,0,0,0-5.5-1.695c-4.372-.4-8.573,1.1-12.721,2.247a35.277,35.277,0,0,1-6.487,1.238,32.392,32.392,0,0,1-6.4-.1,31.515,31.515,0,0,1-6.2-1.376,24.822,24.822,0,0,1-5.629-2.545,5.623,5.623,0,0,1-2.977-4.359c-.083-2.1.978-4.074,1.988-5.849,1.994-3.506,4.457-6.935,4.978-11.039a11.9,11.9,0,0,0-3.483-9.689,13.1,13.1,0,0,0-9.68-4.016,15.7,15.7,0,0,0-9.967,4.187,16.41,16.41,0,0,0-3.361,4.271C234.668,394.086,235.93,394.825,236.381,394Z" transform="translate(-190.436 -308.111)"/><path class="f" d="M217.872,104a10.669,10.669,0,0,0-5.627,19.734c.031.019.064.036.1.055a5.845,5.845,0,0,1,11.064,0c.031-.019.064-.036.1-.055A10.669,10.669,0,0,0,217.872,104Zm0,14.8a3.786,3.786,0,1,1,3.786-3.786A3.786,3.786,0,0,1,217.872,118.8Z" transform="translate(-169.393 -95.717)"/><ellipse class="f" cx="2" cy="1.5" rx="2" ry="1.5" transform="translate(28.5 36.573)"/><circle class="f" cx="2" cy="2" r="2" transform="translate(28.5 44.573)"/><ellipse class="f" cx="2" cy="2.5" rx="2" ry="2.5" transform="translate(28.5 52.573)"/><circle class="f" cx="2" cy="2" r="2" transform="translate(28.5 62.573)"/><rect class="f" width="26" height="5" rx="2.5" transform="translate(35.5 52.573)"/><rect class="f" width="26" height="4" rx="2" transform="translate(35.5 62.573)"/><rect class="f" width="26" height="4" rx="2" transform="translate(35.5 44.573)"/><rect class="f" width="26" height="3" rx="1.5" transform="translate(35.5 36.573)"/></g></svg>