<svg xmlns="http://www.w3.org/2000/svg" width="330.069" height="201.568" viewBox="0 0 330.069 201.568"><defs><style>.a{fill:#f2f2f2;}.b{fill:#c42a68;}.c{fill:#3f3d56;}.d{fill:#2f2e41;}.e{opacity:0.1;}.f{fill:#ffb9b9;}.g{fill:#575a89;}.h{fill:#464353;}</style></defs><g transform="translate(0 -0.005)"><path class="a" d="M430.118,314.369c-.137-.136-3.385-3.425-6.138-11.23-2.526-7.16-5.075-19.647-2.872-38.47,4.173-35.66-17.224-58.386-17.441-58.611l.633-.608a67.4,67.4,0,0,1,10.451,15.993,78.593,78.593,0,0,1,7.229,43.329c-4.165,35.6,8.628,48.846,8.757,48.976Z" transform="translate(-305.302 -187.704)"/><circle class="a" cx="5.706" cy="5.706" r="5.706" transform="translate(86.089 6.344)"/><circle class="a" cx="5.706" cy="5.706" r="5.706" transform="translate(108.568 22.542)"/><circle class="a" cx="5.706" cy="5.706" r="5.706" transform="translate(99.961 39.102)"/><circle class="a" cx="5.706" cy="5.706" r="5.706" transform="translate(117.269 47.075)"/><circle class="a" cx="5.706" cy="5.706" r="5.706" transform="translate(102.88 69.564)"/><path class="a" d="M486.219,472.691s-8.875-12.291,5.256-26.585Z" transform="translate(-358.005 -346.64)"/><path class="a" d="M421.6,509.03s-6.066-13.894-25.561-9Z" transform="translate(-300.267 -381.562)"/><path class="a" d="M798.171,367.19c-.024-.288-.533-7.186,3.9-18.75,4.069-10.609,13.28-27.308,34.051-46.618,39.351-36.581,37.022-83.233,36.994-83.7l1.312-.079c.007.118.664,12.045-3.609,28.361a117.613,117.613,0,0,1-33.8,56.38c-39.284,36.519-37.56,64.024-37.539,64.3Z" transform="translate(-565.824 -196.022)"/><circle class="a" cx="8.539" cy="8.539" r="8.539" transform="translate(297.386 0.005)"/><circle class="a" cx="8.539" cy="8.539" r="8.539" transform="translate(307.282 40.271)"/><circle class="a" cx="8.539" cy="8.539" r="8.539" transform="translate(281.409 50.787)"/><circle class="a" cx="8.539" cy="8.539" r="8.539" transform="translate(293.394 76.664)"/><circle class="a" cx="8.539" cy="8.539" r="8.539" transform="translate(255.181 88.327)"/><path class="a" d="M811.384,615.917s1.814-22.614,31.781-25.19Z" transform="translate(-574.569 -442.151)"/><path class="a" d="M744.607,581.835s6.569-21.715-20.389-35.056Z" transform="translate(-517.002 -413.127)"/><path class="b" d="M204.8,552.61c-2.846,10.522-12.6,17.038-12.6,17.038s-5.135-10.543-2.288-21.065,12.6-17.038,12.6-17.038S207.645,542.089,204.8,552.61Z" transform="translate(-163.567 -403.066)"/><path class="b" d="M157.492,552.61c2.846,10.522,12.6,17.038,12.6,17.038s5.135-10.543,2.288-21.065-12.6-17.038-12.6-17.038S154.645,542.089,157.492,552.61Z" transform="translate(-142.154 -403.066)"/><path class="c" d="M133.517,570.889c7.811,7.6,8.765,19.291,8.765,19.291s-11.709-.639-19.52-8.243S114,562.646,114,562.646,125.707,563.286,133.517,570.889Z" transform="translate(-113.997 -423.606)"/><path class="c" d="M206.055,570.889c-7.811,7.6-8.765,19.291-8.765,19.291s11.709-.639,19.52-8.243,8.765-19.291,8.765-19.291S213.866,563.286,206.055,570.889Z" transform="translate(-169.006 -423.606)"/><rect class="d" width="327.184" height="0.761" transform="translate(2.885 189.191)"/><path class="c" d="M457.063,356.673s-3.4-3.4-11.206-2.717c0,0-75.386-7.81-77.084,6.112s-2.037,22.072,2.377,25.129c0,0,14.432,13.074,6.961,24.619l-4.075,6.791,159.94-1.358s1.7-24.789,6.792-29.543,6.792-29.883,0-30.562S455.2,350.731,457.063,356.673Z" transform="translate(-281.485 -284.34)"/><path class="c" d="M317.728,447.677s-47.88,11.206-28.864,32.26l3.056,3.056-1.358,46.861H511.286l2.377-45.843,2.717-5.433s16.917-20.29-31.951-27.633l-8.8,22.2L326.9,472.126S325.878,447,317.728,447.677Z" transform="translate(-226.535 -347.668)"/><rect class="c" width="13.923" height="10.527" transform="translate(68.102 179.129)"/><rect class="c" width="13.923" height="10.527" transform="translate(268.451 179.129)"/><path class="c" d="M454.443,502.9s-33.242-23.6-74.67.17l-12.225,17.658,2.377,14.6s85.913,1.358,86.931-7.81S454.443,502.9,454.443,502.9Z" transform="translate(-281.448 -377.254)"/><path class="c" d="M705.024,507.559s-58.323-18.677-75.853,0l2.165,26.826s85.233,6.452,86.592,2.037,2.037-12.225,2.037-12.225Z" transform="translate(-454.231 -381.743)"/><path class="e" d="M532.242,503.242s-58.323-18.677-75.853,0l.048.6c-.058-.278-.09-.429-.09-.429s-35.146-23.94-76.574-.17L367.548,520.9l2.377,14.6s83.19,1.77,88.535-6.6l.094,1.163s85.233,6.452,86.592,2.037,2.037-12.225,2.037-12.225Z" transform="translate(-281.448 -377.426)"/><path class="b" d="M386.548,371.834c16.5-.351,32.151-2.446,46.522-7.131.35,16.531,2.726,31.991,8.15,45.843-16.067-2.92-32.374-.03-48.9,8.15C395.288,403.752,392.722,388.043,386.548,371.834Z" transform="translate(-293.996 -292.879)"/><path class="b" d="M777.219,379.834c-16.5-.351-32.151-2.446-46.522-7.131-.35,16.531-2.726,31.991-8.15,45.843,16.067-2.92,32.374-.03,48.9,8.15C768.479,411.752,771.045,396.043,777.219,379.834Z" transform="translate(-515.899 -298.163)"/><path class="d" d="M568.27,368.208a11.49,11.49,0,0,1,3.146-1.577,80.212,80.212,0,0,1,22.164-4.825c6.59-.467,13.733.088,18.88,4.23a6.492,6.492,0,0,1,1.915,2.231,8.172,8.172,0,0,1,.242,4.548,5.141,5.141,0,0,1-.441,1.712,3.846,3.846,0,0,1-3.879,1.623c-1.481-.158-2.871-.785-4.332-1.075a19.356,19.356,0,0,0-2.736-.279l-9.163-.5c-5.7-.308-11.471-.612-17.061.538a16.993,16.993,0,0,0-4.929,1.7c-1.277.717-2.136,1.745-3.321.421C566.672,374.631,565.52,370.356,568.27,368.208Z" transform="translate(-412.94 -290.874)"/><path class="a" d="M608.276,388.54s12.325-5.525,17,.85-2.55,3.825-2.55,3.825l-8.075,2.55-8.925-1.7Z" transform="translate(-438.747 -307.154)"/><path class="f" d="M615.112,373.532s1.7,8.075.425,10.2,7.225,5.1,7.225,5.1l8.075-3.4s-2.125-13.175,0-15.725Z" transform="translate(-444.946 -296.184)"/><path class="e" d="M615.112,373.532s1.7,8.075.425,10.2,7.225,5.1,7.225,5.1l8.075-3.4s-2.125-13.175,0-15.725Z" transform="translate(-444.946 -296.184)"/><path class="g" d="M582.825,650.09a46.49,46.49,0,0,1,2.809,7.36.6.6,0,0,0,.744.495l7.56-.008c.933,0,2.185-.3,2.175-1.234-.007-.656-.677-1.064-1.175-1.49-1.384-1.181-1.744-3.128-2.317-4.854a16.469,16.469,0,0,0-6.128-8.23,3.585,3.585,0,0,0-1.31-.647,3.653,3.653,0,0,0-1.436.078c-1.327.268-6.283,1.184-5.346,3.114.4.831,1.9,1.7,2.523,2.473a17.761,17.761,0,0,1,1.9,2.944Z" transform="translate(-420.622 -475.645)"/><path class="g" d="M658.289,632.7a17.186,17.186,0,0,1-.889,1.634c-1.1,1.806-2.388,3.491-3.407,5.341a8.818,8.818,0,0,0-1.242,3.717,4.129,4.129,0,0,0,1.443,3.513,5.3,5.3,0,0,0,3.966.677,19.18,19.18,0,0,1,4.094-.482c-.463-2.621,1.747-4.928,2.3-7.531.155-.731.178-1.489.386-2.207a10.811,10.811,0,0,1,.856-1.892,24.466,24.466,0,0,0,2.309-6.809c.052-.287-6.72-.335-7.355-.2C658.766,628.892,659.056,631.057,658.289,632.7Z" transform="translate(-469.799 -467.025)"/><path class="d" d="M512.836,503.714c-1.933,3.025-1.488,7.034-.13,10.358s3.519,6.262,5,9.533c.943,2.086,1.6,4.3,2.666,6.325,1.315,2.511,3.235,4.724,4.117,7.417.562,1.717.691,3.6,1.6,5.159a15.807,15.807,0,0,0,1.877,2.329,21.519,21.519,0,0,1,4.326,7.728c.833-2.481,3.326-4.107,5.887-4.643a22.713,22.713,0,0,1,7.805.194,32.814,32.814,0,0,1-3.766-7.028,70.6,70.6,0,0,1-1.64-7.549c-1.151-5.158-3.609-9.916-6.044-14.607l12.511-.992a48.757,48.757,0,0,1,6.147-.228c3.229.152,6.393.944,9.6,1.31s6.61.27,9.472-1.232a45.392,45.392,0,0,0-8.144,26.807,10.379,10.379,0,0,1,15.711,3.708c4.9-6.7,4.32-16.027,8.2-23.364.8-1.509,1.778-2.914,2.64-4.387a64.686,64.686,0,0,0,4.171-9.218c1.087-2.779,2.181-5.872,1.139-8.669a9.05,9.05,0,0,0-1.857-2.856,12.5,12.5,0,0,0-8.7-4.375c-5.12-.117-9.35,3.679-13.842,6.14a31.854,31.854,0,0,1-17.48,3.625c-6.17-.437-12.062-2.456-17.94-4.235a85.365,85.365,0,0,0-8.953-2.31,16.736,16.736,0,0,0-7.406.7C517.111,500.048,514.393,501.278,512.836,503.714Z" transform="translate(-376.541 -379.213)"/><path class="f" d="M623.09,332.394a12.76,12.76,0,0,1-12.75,12.75,12.445,12.445,0,0,1-2.265-.2,12.749,12.749,0,1,1,15.015-12.546Z" transform="translate(-433.374 -263.121)"/><path class="a" d="M586.372,392.447a14.985,14.985,0,0,1,3.188,1.913c.85.85,3.4,5.525,7.65,2.55s4.675-4.675,5.95-4.675,2.975,2.55,2.975,2.55l11.688,35.063a48.945,48.945,0,0,1-10.838,9.138c-6.8,4.25-14.875,6.375-18.7,4.675s-11.05-2.975-12.325-6.375-3.4-13.6-3.4-13.6l5.95-25.925Z" transform="translate(-416.843 -311.062)"/><path class="d" d="M571.947,422.725a16.693,16.693,0,0,0,1.14-6.471,39.229,39.229,0,0,0-.173-6.546c-.377-2.843-1.3-5.582-1.887-8.389a35.472,35.472,0,0,1-.743-7.487,6.1,6.1,0,0,1,.717-3.318,10.59,10.59,0,0,0,1.391-1.944c.535-1.476-.786-3.022-2.234-3.629a8.789,8.789,0,0,0-5.5-.221,26.173,26.173,0,0,0-5.175,2.117,11.848,11.848,0,0,0-3.381,2.186,11.049,11.049,0,0,0-2.368,5.106,10.456,10.456,0,0,0-.423,4.5c.463,2.424,2.439,4.246,3.492,6.478,1.223,2.591,1.141,5.611.654,8.434s-1.35,5.585-1.616,8.437.143,5.919,1.93,8.159c.728.913,2.7,3.075,4.038,2.831,1.047-.192,2.566-2.5,3.41-3.229C567.655,427.626,570.547,425.748,571.947,422.725Z" transform="translate(-404.059 -305.878)"/><path class="d" d="M660.621,380.147a12.78,12.78,0,0,1-2.236,6.651,46.565,46.565,0,0,0-3.578,6.136,14.064,14.064,0,0,0-.656,8.651,27.9,27.9,0,0,0,.938,2.895l2.328,6.387a11.084,11.084,0,0,0,1.35,2.835,9.152,9.152,0,0,0,1.835,1.765,17.128,17.128,0,0,0,5.988,3.124,10.126,10.126,0,0,0,6.658-.38,96.341,96.341,0,0,1,4.136-25.535,9.265,9.265,0,0,0,.615-4.7c-.4-1.745-1.8-3.056-3.137-4.253-4.076-3.66-8.557-7.5-14.013-8C657.692,375.442,660.594,378.433,660.621,380.147Z" transform="translate(-470.467 -300.148)"/><path class="f" d="M582.573,520.952c.323.633.524,1.322.844,1.956a10.935,10.935,0,0,0,1.734,2.332c2.842,3.151,6.315,6.29,10.554,6.48a2.893,2.893,0,0,0,1.244-.157,2.466,2.466,0,0,0,1.324-1.893c.3-1.646-.426-3.288-1.153-4.795-1.577-3.266-3.351-6.614-6.3-8.72a11.825,11.825,0,0,0-10.2-1.535c-1.538.474-4.087,1.3-2.052,2.7C580.107,518.389,581.677,519.2,582.573,520.952Z" transform="translate(-420.308 -391.54)"/><path class="d" d="M582.565,682.76c-1.267,1.722-1.013,4.183-2.135,6-.973,1.577-2.806,2.4-4.023,3.8a10.188,10.188,0,0,0-1.034,1.488c-1.129,1.891-2.046,4.314-.935,6.215.894,1.529,2.774,2.127,4.5,2.534a16.505,16.505,0,0,0,6.647.534,6.62,6.62,0,0,0,5.144-3.84,14.828,14.828,0,0,1,.55-1.552c1.195-2.352,4.942-2.377,6.165-4.715.856-1.636.069-3.613-.717-5.284l-2.4-5.1c-.8-1.693-4.027-.719-5.712-1.125C586.415,681.188,584.145,680.605,582.565,682.76Z" transform="translate(-417.751 -501.918)"/><path class="d" d="M645.563,671.1a6.828,6.828,0,0,0-2.173,2.976,32.554,32.554,0,0,0-1.993,8.71,10.546,10.546,0,0,0-.069,3.572c.512,2.419,2.7,4.2,5.063,4.94a21.105,21.105,0,0,0,7.36.5,5.269,5.269,0,0,0,2.313-.47,3.587,3.587,0,0,0,1.513-3.694,10.513,10.513,0,0,0-1.728-3.851,10.548,10.548,0,0,1-1.73-3.85c-.361-2.357.658-5.816-.79-7.948S647.5,669.747,645.563,671.1Z" transform="translate(-462.174 -494.645)"/><path class="d" d="M614.735,312.848a3.236,3.236,0,0,0-1.4-1.832,7.425,7.425,0,0,0-.3-2.418c-.772-2.283-2.6-2.152-4.327-3.161-.749-.438-.7-.825-1.092-1.544a5.73,5.73,0,0,0-2.208-2.253,7.945,7.945,0,0,0-3.586-1.521c-2.753-.188-4.863,2.4-7.494,3.232-1.16.366-2.406.381-3.572.728a3.285,3.285,0,0,0-2.5,2.377c-.08.556.061,1.126-.02,1.681-.162,1.1-1.13,1.877-1.779,2.786a6.863,6.863,0,0,0-.123,7.031,9.882,9.882,0,0,0,.827,1.294,7.962,7.962,0,0,0,.873,2.956,14.734,14.734,0,0,0,5.182,5.174,12.227,12.227,0,0,1-.306-2.206,1.52,1.52,0,0,1,.094-.731c.229-.48.836-.608,1.3-.87a3.282,3.282,0,0,0,1.361-2.851c.028-1.1-.206-2.2-.09-3.3a1.8,1.8,0,0,1,.617-1.327,2.133,2.133,0,0,1,1.164-.278c1.963-.08,4.013-.116,5.745-1.044a8.516,8.516,0,0,1,1.788-.9c1.471-.384,2.975.648,3.823,1.91s1.271,2.764,2.053,4.068,2.134,2.466,3.647,2.312a.606.606,0,0,0,.452-.2.677.677,0,0,0,.083-.385l.084-5.782A8.741,8.741,0,0,0,614.735,312.848Z" transform="translate(-425.34 -250.22)"/><path class="d" d="M537.2,416.272a23.127,23.127,0,0,0-3.288,5.583c-.393,1.212-.515,2.494-.8,3.736-.948,4.137-3.686,7.812-3.961,12.048a5.726,5.726,0,0,0,.4,2.766c.785,1.708,2.665,2.609,4.458,3.175s3.719.974,5.15,2.194a15.78,15.78,0,0,1,1.951,2.262,18.9,18.9,0,0,0,9.029,6.178c-.281-1.934-.412-4.265,1.134-5.46a5.6,5.6,0,0,1,3.009-.853l4.98-.43a63.992,63.992,0,0,0-10.916-8.5c-1.377-.851-2.876-1.748-3.5-3.239a7.825,7.825,0,0,1-.4-2.988,73.638,73.638,0,0,0-.938-11.055c-.41-2.539-.953-5.055-1.574-7.55-.174-.7-1.2-3.843-2.472-3.108-.3.173-.578,2.167-.753,2.58A15.65,15.65,0,0,1,537.2,416.272Z" transform="translate(-388.159 -323.399)"/><path class="e" d="M568.092,442.736a19.5,19.5,0,0,1-1.863,8.692,7.18,7.18,0,0,0-.73,1.915,5.171,5.171,0,0,0,1.52,3.92,16.118,16.118,0,0,0,6.892,4.795" transform="translate(-412.156 -344.414)"/><path class="d" d="M665.58,355.934l.3.047a1,1,0,0,1-.833-1.146l3.1-19.592a1,1,0,0,1,1.146-.833l-.3-.047a1.609,1.609,0,0,1,1.338,1.841L667.421,354.6A1.609,1.609,0,0,1,665.58,355.934Z" transform="translate(-477.916 -272.842)"/><path class="b" d="M.592,0h.46V21.84H.592A.592.592,0,0,1,0,21.248V.592A.592.592,0,0,1,.592,0Z" transform="translate(190.387 61.412) rotate(8.995)"/><rect class="h" width="0.202" height="1.781" rx="0.101" transform="translate(190.888 64.338) rotate(8.995)"/><path class="f" d="M678.855,362.271a9.5,9.5,0,0,0,.913-3.672,7.4,7.4,0,0,0-1.019-3.26,16.664,16.664,0,0,0-2.658-3.649c-1.248-1.3-3.049-2.456-4.75-1.867-1.351.468-2.12,1.874-2.62,3.213a4.038,4.038,0,0,0-.341,2.09,7,7,0,0,0,1.394,2.412,12.454,12.454,0,0,1,1.488,4.121l.833,3.588,1.432,6.163c-.038-.162,2.658-2.716,2.979-3.26A42.851,42.851,0,0,0,678.855,362.271Z" transform="translate(-480.111 -282.948)"/><path class="d" d="M684.677,394.491l2.034,4.229a10.162,10.162,0,0,1,1.282,5.719l.121,12.686a18.473,18.473,0,0,1-.417,5.052,4.046,4.046,0,0,1-.7,1.508,4.713,4.713,0,0,1-1.2.969c-3.849,2.4-8.839,3.772-12.906,1.756a17.856,17.856,0,0,1-2.646-1.727,21.027,21.027,0,0,1-4.478-4.035c-1.269-1.687,4.566-8.1,3.712-10.033-1.529-3.458-.683-11.659-3.056-14.6-.345-.428,2.794-.043,2.782-.593-.025-1.112,2.642-2.72,3.67-3.143,1.757-.723,3.781-2.2,4.075-4.075,3.737,4.9-6.756,19.708-.859,21.5a.608.608,0,0,0,.936-.52c.335-1.4.453-2.843.7-4.262a24.27,24.27,0,0,1,2.561-7.386C680.98,396.241,683.242,391.505,684.677,394.491Z" transform="translate(-478.278 -308.399)"/><path class="e" d="M699.45,435.284a4.155,4.155,0,0,0,.2,2.525,25.443,25.443,0,0,1,.927,7.382.269.269,0,0,1-.314.322,3.388,3.388,0,0,1-2.77-.657" transform="translate(-499.355 -339.493)"/><path class="c" d="M174.16,660.671H145.975l-4.9-16.714a6.832,6.832,0,0,1,6.555-8.754h24.656a6.831,6.831,0,0,1,6.579,8.673Z" transform="translate(-131.696 -471.524)"/><path class="c" d="M272.462,323.233a4.414,4.414,0,1,1,4.414-4.414A4.414,4.414,0,0,1,272.462,323.233Zm0-8.15a3.735,3.735,0,1,0,3.735,3.735A3.735,3.735,0,0,0,272.462,315.083Z" transform="translate(-215.736 -259.661)"/><path class="c" d="M746.462,264.233a4.414,4.414,0,1,1,4.415-4.414A4.414,4.414,0,0,1,746.462,264.233Zm0-8.15a3.735,3.735,0,1,0,3.735,3.735,3.735,3.735,0,0,0-3.735-3.735Z" transform="translate(-528.777 -220.695)"/><path class="c" d="M524.877,170.032h-8.829V161.2h8.829Zm-8.15-.679H524.2v-7.471h-7.471Z" transform="translate(-379.521 -158.483)"/></g></svg>