<svg xmlns="http://www.w3.org/2000/svg" width="341.176" height="315.031" viewBox="0 0 341.176 315.031"><defs><style>.a{fill:#e92063;}.b,.f{fill:none;}.b{stroke:#fff;}.b,.e,.f{stroke-miterlimit:10;}.c{fill:#f1f1f1;}.d{fill:#fff;}.e,.g{fill:#2f2e41;}.e,.f{stroke:#2f2e41;}.f{stroke-width:3px;}.h{fill:#96686f;}.i{fill:#656380;}.j{fill:#e81f62;opacity:0.3;}.k{fill:#3f3d56;}.l{fill:#f4bab9;}.m{fill:#2f2e40;}.n{fill:#f50057;}</style></defs><g transform="translate(-366.38 -46.252)"><path class="a" d="M964.1,116.428s6.581-23.495,6.581-38.678c0,0,47.2,25.813,47.117,46.215s-19.783,34.857-19.783,34.857L982,169.183Z" transform="translate(-325.511 -17.153)"/><path class="a" d="M994.633,202.757s27.266-36.725,41.47-33.787c0,0-2.91,86.638-25.458,89.366S970,242.451,970,242.451Z" transform="translate(-328.724 -66.74)"/><path class="b" d="M1076.581,169.71s-30.8,46.807-31.811,54.262" transform="translate(-369.443 -67.234)"/><path class="b" d="M979.09,78.28s27.757,43.565,20.494,75.18" transform="translate(-333.674 -17.442)"/><path class="c" d="M684.281,199.611a158.95,158.95,0,0,1-317.9,0c0-87.772,69.3-152.777,159.221-153.356C613.1,45.682,684.281,111.8,684.281,199.611Z" transform="translate(0)"/><path class="d" d="M433.641,141.142s-5.624-38.828,25.886-10.128c0,0,9-3.379,7.879-11.818,0,0,14.628-9,14.628-14.068,0,0,13.508-12.378,23.636-8.439,0,0,6.189-3.939,5.624-10.128,0,0,16.882,9.564,9-5.629,0,0,5.064-14.068-5.624-11.818,0,0-20.257,5.064-20.821,11.841,0,0-14.633-12.943,5.629-18.567,0,0,18.567-6.754,16.878,0,0,0,9.564,3.939,10.128-6.189L527.61,50s-66.946,6.754-108.038,66.4c0,0-6.749,29.825,0,30.385a104.374,104.374,0,0,1,10.128,9s5.174,1.189,6.754,10.693c0,0,.565,14.068,5.629,14.068,0,0,10.689-3.379,0,15.193,0,0,1.125,28.135,4.5,28.135,0,0,8.443,12.378,12.943,11.813,0,0,8.439,10.128,6.189,13.508s-2.25,27.006.565,27.571l9,25.321s32.635,23.631,15.193,0c0,0,9-10.128,5.064-11.253,0,0,7.874-29.26,16.317-28.135,0,0,21.4-5.064,20.257-13.5,0,0,2.815-12.383,10.128-12.383,0,0,15.193-16.317-5.064-27.571,0,0-12.378,2.25-14.068-3.939,0,0,.8-2.66-2.732-3.958a17.657,17.657,0,0,1-9.946-8.653c-2.477-5.1-8.043-10.93-20.525-12.141,0,0-5.629-10.693-27.011-13.508,0,0-12.378,19.7-20.817,1.125" transform="translate(-27.335 -2.041)"/><path class="d" d="M713.12,52.9s-12.378-6.189-5.064,3.939c0,0-6.754,27.011,8.439,10.128,0,0,6.754-7.314,11.253-5.064,0,0,8.443-9,0-9,0,0-9.564-3.939-14.628,0Z" transform="translate(-184.813 -2.602)"/><path class="d" d="M607.2,697.465s-1.125-4.5,7.318-3.939,2.81-16.882,12.378,0l15.757,3.939s10.689-3.379,19.692,0c0,0-4.5-6.194,12.943,0,0,0,10.128-6.194,15.193,0,0,0,7.314-11.841,10.693,0,0,0-48.392,18-93.974,0Z" transform="translate(-131.121 -348.478)"/><path class="d" d="M866.571,95.146c-3.352-1.5-20.63-8.767-10.342,6.153a4.953,4.953,0,0,1,.328.537c.578,1.066,2.96,5.219,5.465,5.415a5.921,5.921,0,0,1,3.8,1.7c1.4,1.421,3.261,3.047,4.8,3.461a5.579,5.579,0,0,1,3.793,3.643c1.781,5.292,3.7,13.48-1.649,13.1,0,0-6.417.428-7.687,2.773a5.424,5.424,0,0,1-2.336,2.2c-5.438,2.778-17.542,10.178,8.525,9.8a5.67,5.67,0,0,0,5.3-3.73,2.613,2.613,0,0,1,3.493-1.931,5.861,5.861,0,0,0,2.651.114c2.532-.455,7.46-.934,8.243,2.464A5.768,5.768,0,0,0,897,145.5a5.074,5.074,0,0,0,1.958-.587,5.633,5.633,0,0,1,3.839-.651c4.723.97,14.673,3.238,15.507,5.31a4.863,4.863,0,0,0,.911,1.366c2.227,2.578,7.528,9.409,0,8.2a5.465,5.465,0,0,0-1.7,0c-3.47.528-16.431,2.186-19.451-1.9a5.765,5.765,0,0,0-2.764-1.954c-5.565-1.963-20.375-5.524-32.434,6.33-.123.118-.255.237-.387.346-1.544,1.243-12.037,10.406-9.564,27.908a5.716,5.716,0,0,1-.169,2.373c-1.5,5.233-6.453,26.323,10.566,28.545a5.762,5.762,0,0,0,1.936-.087c4.554-.993,25.234-5.2,28.5-.911a5.069,5.069,0,0,0,1.831,1.58c2.856,1.275,8.812,5.706,8.125,20.352a5.925,5.925,0,0,1-.155,1.057c-.879,3.7-6.1,26.2-3.807,31.97a5.83,5.83,0,0,1,.109,4.1c-2.145,6.116-6.9,20.494-5.989,25.121a5.741,5.741,0,0,1,0,2.068c-.911,5.6-2.937,26.377,20.594,5.255a5.812,5.812,0,0,0,1.507-2.154c2.049-5.151,10.256-24.97,16.208-27.78a5.611,5.611,0,0,0,2.942-3.092c2.573-6.945,8.912-24.72,8.653-30.44a5.581,5.581,0,0,1,.4-2.409l3.548-8.43a5.657,5.657,0,0,0,.455-1.954c.524-11.026,2.641-106.667-80.266-139.311-.423-.187-.884-.373-1.334-.574Z" transform="translate(-263.868 -24.945)"/><path class="b" d="M707.57,415.461s9.828-2.236,10.274,11.618l2.013,29.716" transform="translate(-185.808 -200.994)"/><path class="b" d="M707.57,404.671s12.51-2.236,13.079,11.618L723.209,446" transform="translate(-185.808 -195.118)"/><path class="e" d="M0,0H21.81V30.831H0Z" transform="matrix(-0.788, -0.615, 0.615, -0.788, 489.182, 227.644)"/><path class="e" d="M670.369,393.85l-1.849,1.844,5.392,6.617,2.213.31Z" transform="translate(-164.542 -189.298)"/><path class="e" d="M668.817,404.257l-16.992,2.136L649.89,409.8l19.7-1.375,9.049,3.069-1.808-12.888Z" transform="translate(-154.396 -191.89)"/><ellipse class="f" cx="10.279" cy="7.373" rx="10.279" ry="7.373" transform="translate(470.11 206.963) rotate(-60.76)"/><g transform="translate(430.809 227.294)"><rect class="g" width="2.682" height="127.347" rx="1.341" transform="translate(21.193 0) rotate(9.58)"/><rect class="g" width="2.682" height="127.347" rx="1.341" transform="translate(42.844 3.383) rotate(9.58)"/><path class="g" d="M0,0H21.45V2.236H0Z" transform="translate(21.569 6.32) rotate(6.54)"/><path class="g" d="M0,0H21.45V2.236H0Z" transform="translate(19.839 21.414) rotate(6.54)"/><path class="g" d="M0,0H21.45V2.236H0Z" transform="translate(17.721 36.014) rotate(6.54)"/><path class="g" d="M0,0H21.45V2.236H0Z" transform="translate(14.709 50.51) rotate(6.54)"/><path class="g" d="M0,0H21.45V2.236H0Z" transform="translate(11.679 69.049) rotate(6.54)"/><path class="g" d="M0,0H21.45V2.236H0Z" transform="translate(8.265 87.1) rotate(6.54)"/><path class="g" d="M0,0H21.45V2.236H0Z" transform="translate(5.285 105.197) rotate(6.54)"/></g><path class="a" d="M708.921,159.471s-29.6-30.057-15.484-56.471c0,0,43.606,15.056,24.137,52.372C706.644,176.321,708.921,159.471,708.921,159.471Z" transform="translate(-176.033 -30.904)"/><path class="b" d="M698,103s19.127,39.621,18.216,54.65" transform="translate(-180.596 -30.904)"/><path class="h" d="M738.449,325.914H728.17L729.459,223h6.376Z" transform="translate(-197.026 -96.255)"/><path class="h" d="M741.794,390l32.3.451-4.65,4.222-32.257.806Z" transform="translate(-201.938 -187.201)"/><path class="i" d="M657.394,302.283l-4.231-.1a.692.692,0,0,1-.674-.715l.15-6.075a.7.7,0,0,1,.71-.679l4.231.1a.692.692,0,0,1,.674.71l-.15,6.08A.7.7,0,0,1,657.394,302.283Zm-4.053-7.241a.36.36,0,0,0-.369.355l-.15,6.075a.36.36,0,0,0,.351.373l4.231.1a.36.36,0,0,0,.369-.355l.15-6.075a.36.36,0,0,0-.351-.373Z" transform="translate(-155.811 -135.307)"/><path class="i" d="M674.6,294.807l-3.821-.1a.911.911,0,0,1-.879-.911l.305-12.3a.911.911,0,0,1,.911-.874l3.816.1a.911.911,0,0,1,.879.911l-.305,12.273A.911.911,0,0,1,674.6,294.807Zm-3.479-13.835a.569.569,0,0,0-.583.551l-.3,12.3a.565.565,0,0,0,.551.583l3.816.1a.574.574,0,0,0,.583-.556l.305-12.273a.569.569,0,0,0-.556-.578Z" transform="translate(-165.293 -127.639)"/><path class="i" d="M691.865,287.978l-3.525-.087a1.048,1.048,0,0,1-1.02-1.075l.455-18.057a1.052,1.052,0,0,1,1.075-1.02l3.525.087a1.052,1.052,0,0,1,1.02,1.075l-.455,18.057A1.052,1.052,0,0,1,691.865,287.978Zm-3.033-19.906a.715.715,0,0,0-.747.7l-.455,18.057a.715.715,0,0,0,.7.733l3.525.087a.711.711,0,0,0,.729-.7l.455-18.057a.715.715,0,0,0-.7-.729Z" transform="translate(-174.779 -120.619)"/><path class="j" d="M0,0H5.324V3.17H0Z" transform="translate(497.902 165.724) rotate(-88.58)"/><path class="j" d="M0,0H11.7V3.17H0Z" transform="translate(505.909 165.944) rotate(-89.44)"/><path class="j" d="M0,0H17.775V3.17H0Z" transform="translate(513.758 166.116) rotate(-88.58)"/><path class="i" d="M672.758,285l-26.314-.651a.173.173,0,0,1-.164-.173l.651-26.145a.168.168,0,1,1,.332,0l-.656,25.99,26.15.647a.173.173,0,0,1,.164.173A.168.168,0,0,1,672.758,285Z" transform="translate(-152.43 -115.222)"/><path class="h" d="M678.159,318.461l-41.338-.451L635,322.564l43.638,2.55Z" transform="translate(-146.287 -147.996)"/><path class="h" d="M731.55,259.325l44.239-21.445-1.079,6.257-42.618,22.338Z" transform="translate(-198.867 -104.358)"/><path class="j" d="M824.67,203.547v26.91a13.456,13.456,0,1,0,0-26.913Z" transform="translate(-249.579 -85.66)"/><path class="j" d="M809.488,204.85a12.355,12.355,0,0,0-11.048,6.831l11.048,6.54Z" transform="translate(-235.294 -86.371)"/><path class="a" d="M794.764,220.21A13.458,13.458,0,0,0,806.792,239.7V227.328Z" transform="translate(-232.516 -94.735)"/><path class="i" d="M610.514,445.05H609.6c-3.743.975-5.583,4.882-5.583,8.931v5.825a8.7,8.7,0,0,0,7.851,8.653l6.444,109.964L666.8,578.2V445.05Z" transform="translate(-129.416 -217.18)"/><path class="k" d="M797.588,445.12h.911c3.744.975,5.588,4.882,5.588,8.931v5.825a8.7,8.7,0,0,1-7.851,8.653L789.769,578.5l-48.479-.223V445.12Z" transform="translate(-204.171 -217.219)"/><path class="l" d="M600.58,383.424a2.359,2.359,0,0,0-.615-3.784l-5.834-2.919L592,379.275l5.438,4.326a2.359,2.359,0,0,0,3.142-.178Z" transform="translate(-122.87 -179.969)"/><path class="m" d="M479.41,437.3l4.618.911,21.8-49.526,8.68,18.376V443.1l4.39.874,6.49-37.38-7.555-42.809-15.247-3.042c-5.674,6.713-10.475,13.835-8.352,22.6Z" transform="translate(-61.555 -171.266)"/><path class="m" d="M551.533,546.537a1.229,1.229,0,0,0,.806,1.539l.15.036,11.522,2.045a1.9,1.9,0,0,0,1.243-3.538,17.666,17.666,0,0,1-6.376-5.529c-1.266,1.18-2.682,1.066-4.185.2l-1.6.2Z" transform="translate(-100.801 -269.483)"/><path class="m" d="M474.242,533.3a1.225,1.225,0,0,0,.806,1.539.905.905,0,0,0,.15.036l11.531,2.049a1.9,1.9,0,0,0,1.243-3.543,17.664,17.664,0,0,1-6.376-5.529c-1.266,1.18-2.682,1.07-4.185.2l-1.6.2Z" transform="translate(-58.709 -262.272)"/><path class="n" d="M530.136,322.132l16.317,5.465.706-16.664c4.672-3.643,3.429-9.454.956-15.707L545.6,291.8l-5.151-2.382a13.89,13.89,0,0,0-6.831,7.8A62.344,62.344,0,0,0,530.136,322.132Z" transform="translate(-89.11 -132.426)"/><path class="n" d="M574.508,342.914l4.267-5.806-13.28-9.632-.688-19.492a4.507,4.507,0,0,0-8.944-.938,4.308,4.308,0,0,0-.064.806l2.423,24.182Z" transform="translate(-103.155 -139.992)"/><path class="l" d="M550.35,289.209l6.094-.556,3.876-9.413-6.922-3.88Z" transform="translate(-100.188 -124.769)"/><ellipse class="l" cx="7.815" cy="8.489" rx="7.815" ry="8.489" transform="translate(452.512 142.097)"/><path class="m" d="M559.211,257.687c-1.73-1.79-4.554-3.243-8.753-1.653a8.653,8.653,0,0,0-4.95,4.809c-2.254,5.465-6.868,17.665-6.467,25.5a3.466,3.466,0,0,0,3.429,3.22c2.732.055,6.6.455,7.619,2.113,1.626,2.66,11.358-1.129,11.249-4.3s-8.343-14.254-5.747-17.16c1.844-2.081,3.675-6.672,5.009-8.443C561.556,260.47,560.345,258.862,559.211,257.687Z" transform="translate(-94.015 -113.873)"/><ellipse class="l" cx="1.248" cy="1.662" rx="1.248" ry="1.662" transform="translate(461.839 151.41)"/></g></svg>